<?xml version="1.0" encoding="UTF-8"?>
<svg id="Layer_1" data-name="Layer 1" xmlns="http://www.w3.org/2000/svg" viewBox="0 0 70.93 64.07">
  <defs>
    <style>
      .cls-1 {
        fill: #e9f3ff;
      }

      .cls-2 {
        fill: 'red';
      }

      .cls-3 {
        fill: #9ca9ba;
      }

      .cls-4 {
        fill: #adb9c8;
      }

      .cls-5 {
        fill: #becee2;
      }

      .cls-6 {
        fill: #d1def0;
      }

      .cls-7 {
        fill: #535a63;
      }

      .cls-8 {
        fill: #7a8593;
      }
    </style>
  </defs>
  <g>
    <g>
      <ellipse class="cls-2" cx="52.04" cy="18.72" rx="8.23" ry="8.68" transform="translate(-.03 37.35) rotate(-39.47)"/>
      <path class="cls-7" d="M52.49,27.35c-.35,0-.71-.02-1.06-.07-2.27-.28-4.35-1.44-5.84-3.25-1.49-1.81-2.23-4.07-2.07-6.36,.16-2.29,1.2-4.33,2.92-5.75s3.93-2.05,6.21-1.77c2.27,.28,4.35,1.44,5.84,3.25,1.49,1.81,2.23,4.07,2.07,6.36-.16,2.29-1.2,4.33-2.92,5.75-1.45,1.2-3.25,1.83-5.14,1.83Zm-.91-17c-1.83,0-3.57,.61-4.98,1.77-1.67,1.37-2.67,3.35-2.83,5.57-.16,2.22,.56,4.41,2.01,6.18,1.45,1.76,3.47,2.89,5.68,3.16,.35,.04,.69,.06,1.03,.06,1.83,0,3.57-.61,4.98-1.77,1.67-1.37,2.67-3.35,2.83-5.57,.16-2.22-.56-4.41-2.01-6.18-1.45-1.76-3.47-2.89-5.68-3.16-.35-.04-.69-.06-1.03-.06Z"/>
    </g>
    <g>
      <path class="cls-8" d="M46.52,12.02c-3.47,2.86-3.87,8.12-.93,11.82,2.87,1.27,6.19,.78,9.43-1.21,2.31-1.42,4.27-3.68,5.2-5.4-.3-1.32-.91-2.6-1.84-3.73-3.05-3.7-8.36-4.36-11.87-1.47Z"/>
      <path class="cls-7" d="M48.94,24.66c-1.19,0-2.33-.24-3.4-.71-.02,0-.04-.02-.05-.04-1.45-1.81-2.15-4.06-1.97-6.31,.18-2.26,1.21-4.28,2.92-5.68,1.72-1.42,3.93-2.05,6.21-1.77,2.27,.28,4.35,1.44,5.84,3.25,.91,1.1,1.55,2.41,1.87,3.78,0,.03,0,.06-.01,.09-.5,.91-1.24,1.92-2.11,2.84-.97,1.04-2.06,1.95-3.14,2.61-1.65,1.01-3.3,1.63-4.91,1.85-.42,.06-.84,.08-1.25,.08Zm-3.27-.93c1.38,.61,2.89,.81,4.48,.59,1.57-.21,3.19-.82,4.81-1.81,1.06-.65,2.13-1.54,3.09-2.57,.83-.89,1.56-1.87,2.05-2.75-.31-1.32-.93-2.57-1.8-3.63-1.45-1.76-3.47-2.89-5.68-3.16-2.21-.27-4.34,.33-6.01,1.71l-.08-.1,.08,.1c-1.65,1.36-2.65,3.31-2.82,5.51-.17,2.18,.5,4.35,1.9,6.11Z"/>
    </g>
    <g>
      <path class="cls-2" d="M55.56,24.27c.53-.44,.79-1.08,.77-1.72l.25-.2s-.65-.96-.73-1.06c-.74-.9-2.08-1.03-2.98-.29-.9,.74-.99,2.04-.29,2.98,.19,.26,.73,1.06,.73,1.06l.42-.35c.62,.15,1.3,.01,1.83-.43Z"/>
      <path class="cls-7" d="M53.31,25.18s-.01,0-.02,0c-.04,0-.07-.03-.09-.06,0,0-.53-.8-.72-1.06-.36-.48-.53-1.07-.48-1.65,.05-.59,.33-1.13,.79-1.51,.46-.38,1.05-.56,1.64-.5,.6,.06,1.14,.34,1.52,.81,.08,.1,.67,.97,.73,1.07,.04,.05,.03,.13-.03,.17l-.2,.16c0,.68-.29,1.32-.82,1.75h0c-.53,.44-1.21,.6-1.88,.47l-.37,.31s-.05,.03-.08,.03Zm.9-4.52c-.46,0-.9,.16-1.26,.45-.4,.33-.65,.81-.7,1.33-.05,.52,.11,1.04,.43,1.47,.15,.2,.49,.71,.65,.95l.31-.26s.07-.04,.11-.03c.61,.14,1.24,0,1.72-.4h0c.48-.4,.75-.98,.72-1.61,0-.04,.02-.08,.05-.1l.16-.13c-.26-.38-.6-.89-.65-.95-.34-.41-.81-.66-1.34-.71-.07,0-.13,0-.2,0Zm1.35,3.62h0Z"/>
    </g>
    <g>
      <path class="cls-2" d="M56.29,25.34c-.9,.74-2.24,.61-2.98-.29-.74-.9-.61-2.24,.29-2.98,.9-.74,2.24-.61,2.98,.29,.74,.9,.61,2.24-.29,2.98Z"/>
      <path class="cls-7" d="M54.94,25.95c-.65,0-1.29-.28-1.73-.82-.79-.96-.65-2.37,.31-3.16,.46-.38,1.05-.56,1.64-.5,.6,.06,1.14,.34,1.52,.81,.79,.96,.65,2.37-.31,3.16h0c-.42,.34-.92,.51-1.42,.51Zm0-4.23c-.46,0-.9,.16-1.26,.45-.85,.7-.97,1.95-.27,2.8,.7,.85,1.95,.97,2.8,.27h0c.85-.7,.97-1.95,.27-2.8-.34-.41-.81-.66-1.34-.71-.07,0-.13,0-.2,0Zm1.35,3.62h0Z"/>
    </g>
  </g>
  <g>
    <path class="cls-5" d="M35.41,37.53s1.75,1.17,3.69,1.26c1.94,.09,8.14-5.76,8.14-5.76l-2.8-4.72-9.03,9.23Z"/>
    <path class="cls-7" d="M39.14,38.91s-.03,0-.05,0c-1.96-.09-3.68-1.23-3.76-1.28-.03-.02-.05-.06-.06-.09s0-.08,.04-.1l9.03-9.23s.07-.04,.11-.04c.04,0,.07,.03,.1,.06l2.8,4.72c.03,.05,.02,.12-.02,.16-.02,.01-1.57,1.48-3.35,2.92-2.36,1.91-3.98,2.88-4.84,2.88Zm-3.53-1.41c.44,.26,1.91,1.08,3.49,1.15,.53,.02,1.78-.44,4.71-2.82,1.55-1.25,2.93-2.53,3.26-2.84l-2.67-4.49-8.8,8.99Z"/>
  </g>
  <path class="cls-3" d="M60.86,4.46h0s0,0,0,0c0,0,0,0,0,0h0c-.12,.45-.4,.76-.84,.95,.44,.19,.72,.5,.84,.94h0s0,0,0,0c0,0,0,0,0,0h0c.12-.45,.4-.76,.84-.95-.44-.19-.72-.5-.84-.94Z"/>
  <path class="cls-3" d="M8.03,19.57h0s0,0,0,0c0,0,0,0,0,0h0c-.12,.45-.4,.76-.84,.95,.44,.19,.72,.5,.84,.94h0s0,0,0,0c0,0,0,0,0,0h0c.12-.45,.4-.76,.84-.95-.44-.19-.72-.5-.84-.94Z"/>
  <path class="cls-3" d="M37.2,59.54h0s0,0,0,0c0,0,0,0,0,0h0c-.12,.45-.4,.76-.84,.95,.44,.19,.72,.5,.84,.94h0s0,0,0,0c0,0,0,0,0,0h0c.12-.45,.4-.76,.84-.95-.44-.19-.72-.5-.84-.94Z"/>
  <path class="cls-3" d="M62.26,35.77h0s0,0,0,0c0,0,0,0,0,0h0c-.12,.45-.4,.76-.84,.95,.44,.19,.72,.5,.84,.94h0s0,0,0,0c0,0,0,0,0,0h0c.12-.45,.4-.76,.84-.95-.44-.19-.72-.5-.84-.94Z"/>
  <path class="cls-3" d="M32.58,9.27h0s0,0,0,0c0,0,0,0,0,0h0c-.12,.45-.4,.76-.84,.95,.44,.19,.72,.5,.84,.94h0s0,0,0,0c0,0,0,0,0,0h0c.12-.45,.4-.76,.84-.95-.44-.19-.72-.5-.84-.94Z"/>
  <path class="cls-3" d="M18.25,19v-.02s0,0,0,0c0,0,0,0,0,0v.02c-.24,.88-.8,1.51-1.68,1.89,.88,.38,1.44,1.01,1.68,1.89v.02s0,0,0,0c0,0,0,0,0,0v-.02c.24-.88,.8-1.51,1.68-1.89-.88-.38-1.44-1.01-1.68-1.89Z"/>
  <path class="cls-3" d="M48.36,58.91v-.02s0,0,0,0c0,0,0,0,0,0v.02c-.24,.88-.8,1.51-1.68,1.89,.88,.38,1.44,1.01,1.68,1.89v.02s0,0,0,0c0,0,0,0,0,0v-.02c.24-.88,.8-1.51,1.68-1.89-.88-.38-1.44-1.01-1.68-1.89Z"/>
  <g>
    <circle class="cls-6" cx="63.36" cy="54.7" r="7.57"/>
    <path class="cls-4" d="M64.85,47.28c.04,1.14-.03,2.32-.41,3.12-.95,2.01-2.43,2.64-5.8,4.3-1.38,.68-1.95,1.95-2.14,3.21,.54,1.15,1.35,2.14,2.36,2.88,.23-.95,.66-2.01,1.46-2.9,2.01-2.22,5.07-.11,8.61-1.9,.94-.48,1.55-1.26,1.95-2.16-.37-3.28-2.84-5.92-6.03-6.56Z"/>
  </g>
  <g>
    <circle class="cls-1" cx="15.72" cy="6.28" r="6.28" transform="translate(4.17 18.65) rotate(-68.74)"/>
    <path class="cls-4" d="M6.24,11.84c-.56,0-.89-.12-1-.37-.16-.35,.18-.87,1.03-1.56,.76-.62,1.9-1.37,3.32-2.18,.06-.03,.14-.01,.18,.05,.03,.06,.01,.14-.05,.18-1.4,.79-2.54,1.54-3.29,2.15-1.03,.85-.99,1.18-.95,1.26,.03,.08,.2,.25,.99,.21,.61-.03,1.45-.19,2.48-.46,2.13-.56,4.86-1.55,7.68-2.8,2.82-1.24,5.4-2.58,7.25-3.77,.9-.58,1.58-1.09,2.01-1.51,.57-.55,.55-.79,.52-.87-.04-.08-.25-.33-1.55-.15-.94,.13-2.24,.46-3.75,.95-.07,.02-.14-.02-.16-.08-.02-.07,.02-.14,.08-.16,1.53-.49,2.84-.82,3.8-.96,1.07-.15,1.67-.05,1.82,.3,.23,.53-.65,1.44-2.63,2.71-1.87,1.2-4.45,2.55-7.29,3.79-2.83,1.25-5.58,2.24-7.72,2.81-1.21,.32-2.13,.48-2.77,.48Z"/>
  </g>
  <g>
    <path class="cls-2" d="M31.17,22.76s-10.65,5.06-13.79,7.66c-2.4,1.98-4.15,4.69-5.21,8.26-.89,3-2.41,10.24-2.41,10.24l5.13,1.14s3.2-9.33,3.61-10.01c1.12-1.87,5.68-3.34,5.68-3.34,0,0-2.82,4.58-3.01,5.85-.19,1.27,.53,11.94,.53,11.94l5.58-.27s.1-7.91,1.05-9.94,3.8-3.29,6.08-4.44c2.28-1.14,4.44-4.05,5.77-5.2,1.33-1.14-5.01-12.1-9-11.91Z"/>
    <path class="cls-7" d="M21.69,54.64c-.07,0-.12-.05-.13-.12-.03-.44-.72-10.7-.53-11.97,.17-1.1,2.2-4.54,2.84-5.59-1.07,.38-4.36,1.65-5.27,3.17-.32,.53-2.49,6.76-3.6,9.99-.02,.06-.09,.1-.15,.08l-5.13-1.14c-.07-.02-.11-.08-.1-.15,.02-.07,1.53-7.28,2.41-10.25,.52-1.77,1.24-3.37,2.12-4.76,.86-1.36,1.92-2.56,3.14-3.56,3.13-2.58,13.71-7.63,13.82-7.68,.02,0,.03-.01,.05-.01,.73-.04,1.58,.29,2.5,.95,.81,.58,1.67,1.41,2.55,2.47,1.54,1.85,3.03,4.28,3.78,6.19,.37,.93,.72,2.13,.25,2.53-.42,.36-.91,.89-1.49,1.5-1.22,1.3-2.73,2.92-4.3,3.71-.19,.1-.39,.19-.58,.29-2.15,1.06-4.59,2.27-5.44,4.09-.93,1.98-1.03,9.81-1.03,9.89,0,.07-.05,.12-.12,.13l-5.58,.27s0,0,0,0Zm2.48-18.05s.08,.02,.1,.05c.03,.04,.04,.1,0,.15-.03,.05-2.81,4.58-2.99,5.8-.17,1.17,.44,10.58,.52,11.79l5.33-.26c.02-1.04,.16-7.96,1.06-9.87,.89-1.9,3.37-3.12,5.56-4.21,.2-.1,.39-.19,.58-.29,1.53-.77,3.03-2.37,4.23-3.65,.58-.62,1.08-1.16,1.51-1.52,.26-.23,.14-1.06-.32-2.24-.75-1.88-2.22-4.28-3.74-6.12-1.83-2.19-3.53-3.38-4.82-3.33-.56,.27-10.71,5.13-13.74,7.64-1.2,.99-2.23,2.17-3.08,3.5-.87,1.37-1.57,2.95-2.09,4.7-.81,2.75-2.17,9.14-2.38,10.11l4.9,1.09c.38-1.1,3.19-9.27,3.59-9.93,.48-.8,1.6-1.61,3.32-2.42,1.27-.6,2.42-.97,2.43-.97,.01,0,.03,0,.04,0Z"/>
  </g>
  <g>
    <path class="cls-2" d="M29.79,22.67s2.35,1.22,4.5,3.49c4.71,4.96,5.3,9.7,5.3,9.7l3.9-2.85s.71,3.56,.75,5.13c.04,1.57-2.06,7.53-2.06,7.53l3.48,1.24s3.11-5.92,4.01-8.88c.9-2.96,.86-8.84,.45-10.12-.41-1.27-3.47-4.24-4.74-5.63-2.74-3.01-5.86-3.28-6.2-3.28s-1.75-.29-4.98,1.06c-2.54,1.06-4.41,2.6-4.41,2.6Z"/>
    <path class="cls-7" d="M45.65,47.05s-.03,0-.04,0l-3.48-1.24c-.07-.02-.1-.1-.08-.16,.02-.06,2.09-5.95,2.05-7.48-.03-1.33-.56-4.14-.71-4.91l-3.73,2.73s-.09,.03-.13,.01-.07-.06-.08-.1c0-.01-.16-1.2-.88-2.97-.67-1.63-1.97-4.12-4.38-6.66-2.11-2.23-4.44-3.46-4.47-3.47-.04-.02-.06-.06-.07-.1,0-.04,.01-.09,.05-.11,.02-.02,1.91-1.57,4.44-2.62,2.91-1.21,4.35-1.12,4.89-1.08,.06,0,.11,0,.14,0,.24,0,1.12,.09,2.25,.52,1.52,.58,2.89,1.52,4.05,2.8,.28,.3,.63,.68,1.04,1.11,1.51,1.58,3.39,3.55,3.72,4.58,.43,1.33,.45,7.22-.45,10.19-.89,2.94-3.99,8.84-4.02,8.9-.02,.04-.07,.07-.11,.07Zm-3.32-1.44l3.26,1.16c.41-.79,3.13-6.05,3.95-8.76,.39-1.29,.65-3.35,.71-5.66,.05-1.95-.06-3.75-.26-4.38-.31-.97-2.25-3-3.67-4.48-.41-.43-.77-.8-1.05-1.11-1.14-1.25-2.47-2.17-3.95-2.74-1.08-.41-1.94-.5-2.15-.5-.04,0-.09,0-.16,0-1.92-.13-3.99,.73-4.77,1.06-2.08,.87-3.73,2.08-4.22,2.46,.58,.33,2.55,1.52,4.36,3.42,2.45,2.58,3.76,5.09,4.44,6.75,.56,1.38,.78,2.39,.86,2.81l3.73-2.72s.08-.03,.12-.02c.04,.02,.07,.05,.08,.09,.03,.15,.71,3.59,.75,5.15,.04,1.47-1.72,6.58-2.03,7.45Z"/>
  </g>
  <path class="cls-7" d="M43.48,33.15s-.01,0-.02,0c-.07-.01-.12-.08-.11-.15,.01-.09,.33-2.26,1.19-3.42,.86-1.16,2-1.84,2.05-1.87,.06-.04,.14-.02,.18,.05,.04,.06,.02,.14-.05,.18-.01,0-1.15,.69-1.98,1.8-.34,.46-.64,1.17-.88,2.07-.18,.68-.26,1.23-.26,1.24,0,.06-.06,.11-.13,.11Z"/>
  <path class="cls-7" d="M24.18,36.84s-.06,0-.08-.03c-.06-.04-.06-.13-.02-.18l2.63-3.22c.04-.06,.13-.06,.18-.02,.06,.04,.06,.13,.02,.18l-2.63,3.22s-.06,.05-.1,.05Z"/>
  <g>
    <path class="cls-5" d="M42.53,43.11s-.83,1.88-1.03,1.97c-.2,.09-1.87,.92-2.13,1.28-.26,.35-1.1,2.35-1.1,2.66s.4,.53,.66,.53,1.67-1.67,1.67-1.67c0,0,.04,2.13-.02,2.51s-.85,1.46-.87,1.66c-.05,.59,1.56,1.48,2.32,1.84,.73,.35,2.42,.18,2.73,0,.31-.18,1.19-1.96,1.39-2.73,.2-.77,.13-2.9,.11-3.26s.93-2.42,.99-2.73c-.09-.26-.77-.92-1.91-1.39-1.14-.46-2.79-.67-2.79-.67Z"/>
    <path class="cls-7" d="M43.3,54.21c-.49,0-.99-.06-1.33-.22-.2-.09-.89-.43-1.48-.85-.64-.44-.94-.81-.91-1.12,0-.11,.11-.29,.37-.7,.21-.35,.47-.78,.51-.97,.04-.25,.04-1.43,.03-2.14-.14,.16-.32,.37-.52,.58-.81,.88-.95,.88-1.03,.88-.31,0-.79-.26-.79-.66,0-.24,.35-1.1,.46-1.36,.21-.5,.51-1.17,.66-1.37,.29-.39,1.99-1.23,2.18-1.31,.13-.11,.59-1.05,.97-1.91,.02-.05,.08-.08,.13-.08,.07,0,1.68,.22,2.83,.68,.66,.27,1.12,.57,1.38,.79,.32,.25,.55,.51,.6,.68,0,.02,0,.04,0,.06-.02,.13-.16,.46-.38,.99-.23,.57-.62,1.52-.61,1.7,.02,.29,.09,2.49-.11,3.3-.19,.75-1.07,2.59-1.45,2.81-.2,.11-.85,.22-1.52,.22Zm-2.7-6.46s.03,0,.04,0c.05,.02,.08,.07,.09,.12,0,.09,.04,2.15-.02,2.53-.04,.23-.29,.65-.54,1.05-.14,.23-.32,.52-.33,.59-.02,.2,.27,.52,.8,.88,.58,.4,1.26,.73,1.45,.83,.7,.33,2.36,.15,2.61,0,.09-.05,.35-.42,.68-1.09,.3-.6,.55-1.21,.64-1.56,.2-.77,.12-2.93,.11-3.22-.01-.23,.25-.9,.63-1.82,.15-.38,.31-.76,.35-.91-.11-.22-.73-.83-1.83-1.28-.96-.39-2.3-.6-2.67-.65-.07,.16-.23,.51-.4,.87-.49,1.01-.59,1.05-.65,1.08-.28,.13-1.86,.93-2.08,1.24-.25,.33-1.07,2.31-1.07,2.58,0,.22,.31,.4,.52,.4,.17-.05,.95-.88,1.58-1.63,.02-.03,.06-.05,.1-.05Z"/>
  </g>
  <g>
    <path class="cls-5" d="M21.15,51.48s.1,4.43,.03,4.68c-.07,.25-2.6,2.49-3.79,4.28-.59,.89-.84,2.06-.49,2.73,.3,.56,3.21,.88,4.56,.74s3.7-1.96,4.38-2.41c.95-.64,2.37-1.84,2.59-2.3,.21-.46,.31-1.17,.13-2.05-.14-.68-.95-1.42-.95-1.68s-.04-4.13-.04-4.13c0,0-1.39-.18-3.4-.12-1.74,.05-3.03,.26-3.03,.26Z"/>
    <path class="cls-7" d="M20.71,64.07c-.59,0-1.29-.05-1.94-.14-.79-.11-1.78-.33-1.98-.7-.36-.68-.15-1.88,.49-2.86,.77-1.17,2.09-2.51,2.97-3.39,.39-.39,.76-.77,.8-.86,.05-.23,0-2.96-.03-4.64,0-.06,.04-.12,.11-.13,.01,0,1.32-.21,3.05-.27,1.99-.06,3.4,.12,3.42,.12,.06,0,.11,.06,.11,.13,0,.16,.04,3.87,.04,4.13,0,.07,.17,.3,.29,.47,.25,.34,.57,.77,.65,1.19,.23,1.1,0,1.8-.14,2.13-.24,.51-1.74,1.76-2.63,2.36-.1,.07-.24,.17-.41,.29-.99,.71-2.84,2.02-4.03,2.14-.22,.02-.49,.03-.77,.03Zm.57-12.48c.02,.95,.09,4.36,.02,4.6-.03,.11-.25,.34-.87,.96-.87,.88-2.18,2.21-2.94,3.35-.59,.89-.79,2-.48,2.6,.08,.16,.6,.4,1.79,.57,.93,.13,1.99,.17,2.65,.11,1.12-.12,3-1.46,3.91-2.1,.17-.12,.31-.22,.42-.29,.96-.65,2.35-1.83,2.54-2.25,.23-.5,.28-1.22,.12-1.97-.08-.37-.37-.77-.61-1.09-.23-.31-.34-.48-.34-.62,0-.23-.03-3.37-.04-4.01-.37-.04-1.62-.15-3.27-.1-1.42,.04-2.56,.19-2.9,.25Z"/>
  </g>
  <g>
    <path class="cls-5" d="M9.76,46.44l6.18,1.46s-.65,2.86-.65,3.27,0,1.93-.02,2.7c-.02,.77-.7,2.42-.87,2.62-.17,.2-4.21-.22-5.09-.27-.87-.05-9.05-1.02-9.15-1.07-.1-.05,.1-1.82,.55-2.24,.45-.42,3.21-1.17,4.34-1.4,1.42-.29,3.25-.57,3.37-.69,.12-.12,1.05-3.98,1.35-4.36Z"/>
    <path class="cls-7" d="M13.93,56.66c-.22,0-.53-.01-.98-.04-.77-.05-1.72-.13-2.47-.19-.51-.04-.95-.08-1.18-.1-.46-.03-2.91-.31-4.87-.54-1.1-.13-2.15-.26-2.94-.35-1.34-.17-1.36-.18-1.39-.19-.07-.04-.08-.12-.09-.15-.04-.3,.15-1.87,.61-2.31,.5-.47,3.39-1.23,4.4-1.44,.51-.11,1.09-.21,1.6-.3,.73-.13,1.55-.28,1.7-.35,.06-.14,.25-.84,.42-1.46,.42-1.55,.74-2.66,.92-2.89,.03-.04,.08-.06,.13-.05l6.18,1.46c.07,.02,.11,.08,.1,.15-.18,.79-.65,2.92-.65,3.24v.13c0,.51,0,1.87-.02,2.58-.03,.79-.7,2.47-.9,2.7-.04,.05-.08,.1-.56,.1ZM.26,55.02c.8,.12,8.1,1,9.06,1.06,.23,.01,.65,.05,1.18,.1,.73,.06,1.63,.14,2.38,.19,1.09,.07,1.36,.04,1.43,.02,.17-.23,.81-1.8,.83-2.52,.02-.71,.02-2.06,.02-2.57v-.13c0-.37,.5-2.61,.63-3.17l-5.97-1.41c-.18,.37-.57,1.78-.83,2.73-.35,1.29-.42,1.51-.48,1.57-.09,.1-.46,.17-1.84,.42-.51,.09-1.08,.2-1.59,.3-1.27,.26-3.88,1-4.28,1.37-.36,.34-.55,1.72-.53,2.04Zm14.06,1.36h0ZM.26,55.07H.26Z"/>
  </g>
  <path class="cls-7" d="M40.44,53.08s-.05,0-.07-.02c-.06-.04-.07-.12-.03-.18,.34-.49,1.24-1.85,1.34-2.19,.13-.42,.24-1.43,.24-1.44,0-.07,.07-.12,.14-.11,.07,0,.12,.07,.11,.14,0,.04-.12,1.05-.25,1.49-.14,.45-1.32,2.19-1.38,2.26-.02,.04-.07,.06-.11,.06Z"/>
  <path class="cls-7" d="M41.68,53.83s-.05,0-.07-.02c-.06-.04-.08-.12-.04-.18,.37-.6,1.36-2.22,1.46-2.57,.13-.43,.42-1.47,.42-1.48,.02-.07,.09-.11,.16-.09,.07,.02,.11,.09,.09,.16,0,.01-.29,1.05-.42,1.48-.14,.44-1.44,2.54-1.49,2.63-.02,.04-.07,.06-.11,.06Z"/>
  <path class="cls-7" d="M43.31,54.1s-.04,0-.06-.02c-.06-.04-.08-.11-.05-.18,.36-.63,1.08-1.9,1.18-2.23,.13-.42,.28-1.27,.28-1.28,.01-.07,.08-.12,.15-.1,.07,.01,.12,.08,.1,.15,0,.04-.16,.88-.29,1.31-.14,.44-1.16,2.21-1.2,2.29-.02,.04-.07,.06-.11,.06Z"/>
</svg>